<?xml version="1.0" encoding="utf-8"?>
<!-- Generator: Adobe Illustrator 23.0.3, SVG Export Plug-In . SVG Version: 6.00 Build 0)  -->
<svg version="1.1" id="Calque_1" xmlns="http://www.w3.org/2000/svg" xmlns:xlink="http://www.w3.org/1999/xlink" x="0px" y="0px"
	 viewBox="0 0 237.6 94.8" style="enable-background:new 0 0 237.6 94.8;" xml:space="preserve">
<style type="text/css">
	.st0{fill-rule:evenodd;clip-rule:evenodd;fill:#EDEDED;}
	.st1{fill-rule:evenodd;clip-rule:evenodd;fill:#DC2F34;}
	.st2{fill-rule:evenodd;clip-rule:evenodd;fill:#004A93;}
	.st3{fill-rule:evenodd;clip-rule:evenodd;fill:#00ABE7;}
	.st4{fill-rule:evenodd;clip-rule:evenodd;fill:#FFDF00;}
	.st5{fill-rule:evenodd;clip-rule:evenodd;fill:#52AE32;}
</style>
<g>
	<g>
		<polygon class="st0" points="55.8,46.5 68.1,44.4 67.1,38.7 49.2,41.8 52.3,59.7 58,58.7 		"/>
		<polygon class="st0" points="89.9,40.5 92,52.7 97.7,51.7 94.5,33.8 76.6,37 77.6,42.7 		"/>
		<polygon class="st0" points="95.8,74.5 83.6,76.7 84.6,82.4 102.5,79.2 99.4,61.3 93.7,62.3 		"/>
		<polygon class="st0" points="61.8,80.5 59.7,68.3 54,69.3 57.1,87.2 75,84.1 74,78.4 		"/>
	</g>
	<polygon class="st1" points="58.9,42.1 71.1,40 70.1,34.3 52.2,37.4 55.4,55.3 61.1,54.3 	"/>
	<polygon class="st2" points="92.9,36.2 95.1,48.4 100.7,47.4 97.6,29.5 79.7,32.6 80.7,38.3 	"/>
	<polygon class="st3" points="98.9,70.2 86.7,72.3 87.7,78 105.6,74.9 102.4,57 96.7,58 	"/>
	<polygon class="st4" points="64.9,76.1 62.7,63.9 57,64.9 60.2,82.8 78.1,79.7 77.1,74 	"/>
	<g>
		<path d="M124.6,42.6c-0.8,2.2-3.3,4.9-7,5.5c-5.1,0.9-9.9-2.2-10.8-7.6c-0.9-5.3,2.5-9.9,7.6-10.8c3.8-0.6,6.9,1.1,8.5,2.9
			l-0.8,0.1c-0.8-0.8-3.6-3.1-7.6-2.4c-4.7,0.8-7.8,5.1-7,10c0.9,4.9,5.3,7.9,10,7c4.1-0.7,5.9-4,6.3-4.7L124.6,42.6z"/>
		<path d="M126.7,35.6L126.7,35.6c0.5-2,2.6-3.4,4.7-3.7c1.6-0.3,3-0.1,4.2,0.6c1.4,0.8,2.3,2.4,2.7,4.7l1.2,6.7l-0.7,0.1l-1.2-6.7
			c-0.4-2.2-1.2-3.5-2.3-4.2c-1.1-0.7-2.5-0.8-3.8-0.6c-3.2,0.6-4.8,2.8-4.3,6l1.3,7.3l-0.7,0.1l-3.1-17.7l0.7-0.1L126.7,35.6z"/>
		<path d="M155.3,41.2l-0.7,0.1l-0.6-3.2l0,0c-0.7,2.3-2.6,4-5.3,4.5c-4.2,0.7-7.3-2.1-7.9-5.5c-0.6-3.5,1.4-7.1,5.5-7.8
			c3.1-0.5,5.6,1,6.5,2.5l0,0l-0.6-3.2l0.7-0.1L155.3,41.2z M153.6,34.9c-0.6-3.5-3.7-5.6-7.1-5c-3.3,0.6-5.6,3.5-5,7.1
			c0.5,2.9,3,5.7,7.1,5C152.2,41.4,154.1,38.2,153.6,34.9z"/>
		<path d="M157.6,30L157.6,30c0.8-2.6,2.9-3.1,4-3.4l0.1,0.6c-0.8,0.2-1.6,0.4-2.6,1.4c-1.3,1.6-1.2,3.1-0.9,4.9l1.2,6.9l-0.7,0.1
			l-2.2-12.7l0.7-0.1L157.6,30z"/>
		<path d="M166.7,39.2l-0.7,0.1l-3.1-17.7l0.7-0.1L166.7,39.2z"/>
		<path d="M168.6,32.3c0.8,4.1,4.6,5.4,7.1,4.9c2.3-0.4,4.2-2,4.8-4.3l0.7-0.1c-0.7,2.9-2.9,4.6-5.5,5.1c-3.9,0.7-7.2-1.7-7.9-5.5
			l0,0c-0.7-3.8,1.7-7.2,5.5-7.9c3.4-0.6,6.9,1.3,7.8,5.2l0,0.4L168.6,32.3z M180.5,29.6c-0.7-3-4-5.1-6.9-4.4
			c-3.1,0.6-5.4,3.3-5,6.5L180.5,29.6z"/>
		<path d="M180.7,23.6l0.7-0.1l7,11l2.8-12.8l0.8-0.1l-3,13.6l-0.9,0.2L180.7,23.6z"/>
		<path d="M194,18.3l-0.7,0.1l-0.4-2.2l0.7-0.1L194,18.3z M196.7,33.9L196,34l-2.2-12.7l0.7-0.1L196.7,33.9z"/>
		<path d="M200.9,33.2l-0.7,0.1l-3.1-17.7l0.7-0.1L200.9,33.2z"/>
		<path d="M205,32.4l-0.7,0.1l-3.1-17.7l0.7-0.1L205,32.4z"/>
		<path d="M206.9,25.6c0.8,4.1,4.6,5.4,7.1,4.9c2.3-0.4,4.2-2,4.8-4.3l0.7-0.1c-0.7,2.9-2.9,4.6-5.5,5.1c-3.9,0.7-7.2-1.7-7.9-5.5
			l0,0c-0.7-3.8,1.7-7.2,5.5-7.9c3.4-0.6,6.9,1.3,7.8,5.2l0,0.4L206.9,25.6z M218.8,22.9c-0.7-3-4-5.1-6.9-4.4
			c-3.1,0.6-5.4,3.3-5,6.5L218.8,22.9z"/>
		<path d="M122.5,70.4l5.3-18l1.1-0.2l3.1,17.7l-0.7,0.1l-3-17l0,0l0,0l0,0l-5.3,18.5l-0.4,0.1l-11.3-15.5l0,0l3,17l-0.7,0.1
			l-3.1-17.7l1.1-0.2L122.5,70.4z"/>
		<path d="M134,63.1c0.8,4.1,4.6,5.4,7.1,4.9c2.3-0.4,4.2-2,4.8-4.3l0.7-0.1c-0.7,2.9-2.9,4.6-5.5,5.1c-3.9,0.7-7.2-1.7-7.9-5.5l0,0
			c-0.7-3.8,1.7-7.2,5.5-7.9c3.4-0.6,6.9,1.3,7.8,5.2l0,0.4L134,63.1z M145.8,60.4c-0.7-3-4-5.1-6.9-4.4c-3.1,0.6-5.4,3.3-5,6.5
			L145.8,60.4z M140.6,49.5L141,50l-5.1,4.3l-0.4-0.5L140.6,49.5z"/>
		<path d="M155,52.8l0.1,0.6l-5.9,12.8l8.3-1.5l0.1,0.6l-9.2,1.6l-0.1-0.6l5.9-12.9l-7.4,1.3l-0.1-0.6L155,52.8z"/>
		<path d="M157.5,49.4l-0.7,0.1l-0.4-2.2l0.7-0.1L157.5,49.4z M160.3,65l-0.7,0.1l-2.2-12.7l0.7-0.1L160.3,65z"/>
		<path d="M162.2,58.2c0.8,4.1,4.6,5.4,7.1,4.9c2.3-0.4,4.2-2,4.8-4.3l0.7-0.1c-0.7,2.9-2.9,4.6-5.5,5.1c-3.9,0.7-7.2-1.7-7.9-5.5
			l0,0c-0.7-3.8,1.7-7.2,5.5-7.9c3.4-0.6,6.9,1.3,7.8,5.2l0,0.4L162.2,58.2z M174.1,55.4c-0.7-3-4-5.1-6.9-4.4
			c-3.1,0.6-5.4,3.3-5,6.5L174.1,55.4z M169.5,47.8l-0.2,0.6l-6.3-2.3l0.2-0.6L169.5,47.8z"/>
		<path d="M177.2,51.3L177.2,51.3c0.8-2.6,2.9-3.1,4-3.4l0.1,0.6c-0.8,0.2-1.6,0.4-2.6,1.4c-1.3,1.6-1.2,3.1-0.9,4.9l1.2,6.9
			l-0.7,0.1l-2.2-12.7l0.7-0.1L177.2,51.3z"/>
		<path d="M182.6,54.6c0.8,4.1,4.6,5.4,7.1,4.9c2.3-0.4,4.2-2,4.8-4.3l0.7-0.1c-0.7,2.9-2.9,4.6-5.5,5.1c-3.9,0.7-7.2-1.7-7.9-5.5
			l0,0c-0.7-3.8,1.7-7.2,5.5-7.9c3.4-0.6,6.9,1.3,7.8,5.2l0,0.4L182.6,54.6z M194.5,51.9c-0.7-3-4-5.1-6.9-4.4
			c-3.1,0.6-5.4,3.3-5,6.5L194.5,51.9z"/>
		<path d="M198.1,54.7c0.4,2,2,3,3.8,2.6c1.9-0.3,2.8-2,2.5-3.6c-0.4-1.7-1.5-2.4-3.6-2.5c-2-0.2-3.5-0.5-4-2.7
			c-0.4-2.1,1-3.6,2.9-3.9c1.8-0.3,3.6,0.5,3.9,2.7l-0.7,0.1c-0.3-1.9-1.8-2.5-3.2-2.2c-1.7,0.3-2.6,1.7-2.3,3.1
			c0.3,1.5,1.4,1.9,3.2,2.1c1.8,0.2,3.7,0.3,4.3,3c0.5,2.1-0.9,4.1-3,4.5c-2.1,0.4-4.3-0.8-4.6-3.1L198.1,54.7z"/>
	</g>
	<g>
		<path d="M17.2,38l3-13.1l0.6-0.1l-3.3,14l-0.4,0.1L9.3,26.8l0.6-0.1L17.2,38z"/>
		<path d="M22.8,26.1l-0.5,0.1L22,24.6l0.5-0.1L22.8,26.1z M24.8,37.6l-0.5,0.1l-1.6-9.4l0.5-0.1L24.8,37.6z"/>
		<path d="M27.9,37l-0.5,0.1l-2.3-13.1l0.5-0.1L27.9,37z"/>
		<path d="M30.9,36.5l-0.5,0.1l-2.3-13.1l0.5-0.1L30.9,36.5z"/>
		<path d="M32.3,31.5c0.6,3,3.4,4,5.2,3.6c1.7-0.3,3.1-1.5,3.6-3.2l0.5-0.1c-0.5,2.1-2.1,3.4-4,3.7c-2.9,0.5-5.3-1.3-5.8-4l0,0
			c-0.5-2.8,1.3-5.3,4.1-5.8c2.5-0.4,5.1,1,5.7,3.8l0,0.3L32.3,31.5z M41.1,29.5c-0.5-2.2-2.9-3.7-5.1-3.3c-2.3,0.4-4,2.4-3.7,4.8
			L41.1,29.5z"/>
		<path d="M58.1,31.7l-0.5,0.1l-0.4-2.3l0,0c-0.5,1.7-1.9,3-3.9,3.3c-3.1,0.5-5.3-1.5-5.8-4c-0.5-2.6,1-5.2,4.1-5.8
			c2.3-0.4,4.1,0.7,4.8,1.8l0,0l-1.1-6.1l0.5-0.1L58.1,31.7z M56.8,27.1c-0.4-2.6-2.7-4.1-5.2-3.7c-2.4,0.4-4.1,2.6-3.6,5.2
			c0.4,2.1,2.2,4.2,5.3,3.7C55.8,31.9,57.2,29.5,56.8,27.1z"/>
		<path d="M59.6,26.7c0.6,3,3.4,4,5.2,3.6c1.7-0.3,3.1-1.5,3.6-3.2l0.5-0.1c-0.5,2.1-2.1,3.4-4,3.7c-2.9,0.5-5.3-1.3-5.8-4l0,0
			c-0.5-2.8,1.3-5.3,4.1-5.8c2.5-0.4,5.1,1,5.7,3.8l0,0.3L59.6,26.7z M68.3,24.7c-0.5-2.2-2.9-3.7-5.1-3.3c-2.3,0.4-4,2.4-3.7,4.8
			L68.3,24.7z"/>
	</g>
	<path class="st5" d="M73.1,64.4c4.6,3.2,10.9,2.1,14.1-2.5c3.2-4.6,2.1-10.9-2.5-14.1c-4.6-3.2-10.9-2.1-14.1,2.5
		C67.4,54.9,68.5,61.2,73.1,64.4z"/>
</g>
</svg>
