<?xml version="1.0" encoding="utf-8"?>
<!-- Generator: Adobe Illustrator 19.1.1, SVG Export Plug-In . SVG Version: 6.00 Build 0)  -->
<svg version="1.1" id="Calque_1" xmlns="http://www.w3.org/2000/svg" xmlns:xlink="http://www.w3.org/1999/xlink" x="0px" y="0px"
	 viewBox="-169.4 264.7 211.5 73" style="enable-background:new -169.4 264.7 211.5 73;" xml:space="preserve">
<style type="text/css">
	.st0{fill:#EDEDED;}
	.st1{fill:#DC2F34;}
	.st2{fill:#004A93;}
	.st3{fill:#00ABE7;}
	.st4{fill:#FFDF00;}
	.st5{fill:#1A171B;}
	.st6{fill:#52AE32;}
</style>
<g>
	<g>
		<polygon class="st0" points="-122.2,297 -109.9,294.9 -110.9,289.2 -128.8,292.3 -125.7,310.2 -120,309.2 		"/>
		<polygon class="st0" points="-88.1,291 -86,303.2 -80.3,302.2 -83.5,284.3 -101.4,287.5 -100.4,293.2 		"/>
		<polygon class="st0" points="-82.2,325 -94.4,327.2 -93.4,332.9 -75.5,329.7 -78.6,311.8 -84.3,312.8 		"/>
		<polygon class="st0" points="-116.2,331 -118.3,318.8 -124,319.8 -120.9,337.7 -103,334.6 -104,328.9 		"/>
	</g>
	<polygon class="st1" points="-119.1,292.6 -106.9,290.5 -107.9,284.8 -125.8,287.9 -122.6,305.8 -116.9,304.8 	"/>
	<polygon class="st2" points="-85.1,286.7 -82.9,298.9 -77.3,297.9 -80.4,280 -98.3,283.1 -97.3,288.8 	"/>
	<polygon class="st3" points="-79.1,320.7 -91.3,322.8 -90.3,328.5 -72.4,325.4 -75.6,307.5 -81.3,308.5 	"/>
	<polygon class="st4" points="-113.1,326.6 -115.3,314.4 -121,315.4 -117.8,333.3 -99.9,330.2 -100.9,324.5 	"/>
	<g>
		<path class="st5" d="M-62.1,299.2c-4.8,0-8.7-3.3-9.5-8.1c-0.9-5.5,2.5-10.3,7.9-11.3c0.5-0.1,1.1-0.1,1.6-0.1
			c2.8,0,5.5,1.2,7.3,3.2l0.5,0.6l-1.8,0.2l-0.1-0.1c-0.4-0.4-2.6-2.4-5.8-2.4c-0.5,0-0.9,0-1.4,0.1c-4.6,0.8-7.4,4.9-6.7,9.5
			c0.7,4,4,6.8,7.9,6.8c0.5,0,1.1-0.1,1.6-0.2c1.8-0.3,4.2-1.3,6-4.4l0.1-0.2l0.3,0h1.4l-0.2,0.6c-0.9,2.3-3.5,5.2-7.3,5.8
			C-60.9,299.1-61.5,299.2-62.1,299.2z"/>
		<path class="st5" d="M-53.4,293.1c-0.8,2.2-3.3,4.9-7,5.5c-5.1,0.9-9.9-2.2-10.8-7.6c-0.9-5.3,2.5-9.9,7.6-10.8
			c3.8-0.6,6.9,1.1,8.5,2.9l-0.8,0.1c-0.8-0.8-3.6-3.1-7.6-2.4c-4.7,0.8-7.8,5.1-7,10c0.9,4.9,5.3,7.9,10,7c4.1-0.7,5.9-4,6.3-4.7
			H-53.4z"/>
		<path class="st5" d="M-53.8,278.3l1.5-0.2l1.1,6.5c0.9-1.4,2.6-2.4,4.5-2.7c0.5-0.1,1-0.1,1.4-0.1c1.1,0,2.1,0.3,3,0.8
			c1.5,0.9,2.5,2.5,2.9,5l1.3,7.1l-1.5,0.2l-1.3-7.1c-0.4-2-1-3.2-2.1-3.9c-0.7-0.4-1.5-0.6-2.4-0.6c-0.3,0-0.7,0-1.1,0.1
			c-3,0.6-4.4,2.6-3.9,5.5l1.4,7.7l-1.5,0.2L-53.8,278.3z"/>
		<path class="st5" d="M-51.3,286.1L-51.3,286.1c0.5-2,2.6-3.4,4.7-3.7c1.6-0.3,3-0.1,4.2,0.6c1.4,0.8,2.3,2.4,2.7,4.7l1.2,6.7
			l-0.7,0.1l-1.2-6.7c-0.4-2.2-1.2-3.5-2.3-4.2c-1.1-0.7-2.5-0.8-3.8-0.6c-3.2,0.6-4.8,2.8-4.3,6l1.3,7.3l-0.7,0.1l-3.1-17.7
			l0.7-0.1L-51.3,286.1z"/>
		<path class="st5" d="M-30.6,293.6c-3.5,0-6.4-2.5-7-6c-0.3-1.9,0.1-3.7,1.1-5.3c1.1-1.6,2.8-2.7,4.8-3c0.4-0.1,0.9-0.1,1.3-0.1
			c1.9,0,3.5,0.7,4.6,1.6l-0.4-2.1l1.5-0.2l2.6,13.5l-1.5,0.2l-0.4-2.2c-1,1.8-2.8,3-5.1,3.5C-29.7,293.6-30.1,293.6-30.6,293.6z
			 M-30.3,280.7c-0.4,0-0.7,0-1.1,0.1c-3.2,0.6-5.2,3.4-4.7,6.6c0.4,2.4,2.2,4.8,5.4,4.8c0,0,0,0,0,0c0.4,0,0.8,0,1.2-0.1
			c3.2-0.5,5.2-3.3,4.7-6.6C-25.3,282.7-27.6,280.7-30.3,280.7z"/>
		<path class="st5" d="M-22.7,291.7l-0.7,0.1l-0.6-3.2l0,0c-0.7,2.3-2.6,4-5.3,4.5c-4.2,0.7-7.3-2.1-7.9-5.5
			c-0.6-3.5,1.4-7.1,5.5-7.8c3.1-0.5,5.6,1,6.5,2.5l0,0l-0.6-3.2l0.7-0.1L-22.7,291.7z M-24.4,285.4c-0.6-3.5-3.7-5.6-7.1-5
			c-3.3,0.6-5.6,3.5-5,7.1c0.5,2.9,3,5.7,7.1,5C-25.8,291.9-23.9,288.7-24.4,285.4z"/>
		<path class="st5" d="M-22,277.9l1.5-0.2l0.2,1.3c1-1.6,2.7-2.1,3.6-2.3l0.5-0.1l0.2,0.4l0.2,1l-0.4,0.1c-0.8,0.2-1.5,0.4-2.4,1.3
			c-1.2,1.5-1.1,2.9-0.8,4.5l1.3,7.3l-1.5,0.2L-22,277.9z"/>
		<path class="st5" d="M-20.4,280.5L-20.4,280.5c0.8-2.6,2.9-3.1,4-3.4l0.1,0.6c-0.8,0.2-1.6,0.4-2.6,1.4c-1.3,1.6-1.2,3.1-0.9,4.9
			l1.2,6.9l-0.7,0.1l-2.2-12.7l0.7-0.1L-20.4,280.5z"/>
		<polygon class="st5" points="-15.6,271.7 -14.1,271.5 -10.8,290 -12.3,290.3 		"/>
		<path class="st5" d="M-11.3,289.7l-0.7,0.1l-3.1-17.7l0.7-0.1L-11.3,289.7z"/>
		<path class="st5" d="M-3.6,288.9c-3.5,0-6.3-2.4-7-6c-0.4-1.9,0-3.9,1.1-5.4c1.1-1.6,2.8-2.6,4.7-3c0.4-0.1,0.9-0.1,1.3-0.1
			c3.4,0,6.2,2.3,7,5.6l0,0.5v0.4l-12.4,2.2c0.8,2.9,3.3,4.2,5.5,4.2c0,0,0,0,0,0c0.3,0,0.7,0,1-0.1c2.2-0.4,3.9-1.9,4.5-4l0.1-0.3
			l1.6-0.2l-0.1,0.6c-0.7,2.9-2.8,4.8-5.8,5.4C-2.7,288.9-3.2,288.9-3.6,288.9z M-3.2,276c-0.4,0-0.7,0-1.1,0.1
			c-2.9,0.6-4.8,2.9-4.7,5.6l11-1.9C1.2,277.6-1,276-3.2,276z"/>
		<path class="st5" d="M-9.4,282.8c0.8,4.1,4.6,5.4,7.1,4.9c2.3-0.4,4.2-2,4.8-4.3l0.7-0.1c-0.7,2.9-2.9,4.6-5.5,5.1
			c-3.9,0.7-7.2-1.7-7.9-5.5l0,0c-0.7-3.8,1.7-7.2,5.5-7.9c3.4-0.6,6.9,1.3,7.8,5.2v0.4L-9.4,282.8z M2.5,280.1
			c-0.7-3-4-5.1-6.9-4.4c-3.1,0.6-5.4,3.3-5,6.5L2.5,280.1z"/>
		<polygon class="st5" points="2,273.8 3.6,273.5 10.2,283.9 12.8,271.8 14.5,271.6 11.4,286 9.9,286.4 		"/>
		<path class="st5" d="M2.7,274.1l0.7-0.1l7,11l2.8-12.8l0.8-0.1l-3,13.6l-0.9,0.2L2.7,274.1z"/>
		<path class="st5" d="M15.3,271.4l1.5-0.2l2.3,13.5l-1.5,0.2L15.3,271.4z M14.4,266.3l1.5-0.2l0.6,3l-1.5,0.2L14.4,266.3z"/>
		<path class="st5" d="M16,268.8l-0.7,0.1l-0.4-2.2l0.7-0.1L16,268.8z M18.7,284.4l-0.7,0.1l-2.2-12.7l0.7-0.1L18.7,284.4z"/>
		<polygon class="st5" points="18.6,265.7 20.1,265.5 23.4,284 21.9,284.3 		"/>
		<path class="st5" d="M22.9,283.7l-0.7,0.1l-3.1-17.7l0.7-0.1L22.9,283.7z"/>
		<polygon class="st5" points="22.7,264.9 24.2,264.7 27.5,283.2 26,283.5 		"/>
		<path class="st5" d="M27,282.9l-0.7,0.1l-3.1-17.7l0.7-0.1L27,282.9z"/>
		<path class="st5" d="M34.7,282.2c-3.5,0-6.3-2.4-7-6c-0.7-4,1.8-7.6,5.8-8.4c0.4-0.1,0.9-0.1,1.3-0.1c3.4,0,6.2,2.3,7,5.6l0,0.5
			v0.4l-12.4,2.2c0.8,2.9,3.3,4.2,5.5,4.2c0,0,0,0,0,0c0.3,0,0.7,0,1-0.1c2.2-0.4,3.9-1.9,4.5-4l0.1-0.3l1.6-0.2l-0.1,0.6
			c-0.7,2.9-2.8,4.8-5.8,5.4C35.6,282.2,35.1,282.2,34.7,282.2z M35.1,269.3c-0.4,0-0.7,0-1.1,0.1c-2.9,0.6-4.8,2.9-4.7,5.6l11-1.9
			C39.5,270.9,37.3,269.3,35.1,269.3z"/>
		<path class="st5" d="M28.9,276.1c0.8,4.1,4.6,5.4,7.1,4.9c2.3-0.4,4.2-2,4.8-4.3l0.7-0.1c-0.7,2.9-2.9,4.6-5.5,5.1
			c-3.9,0.7-7.2-1.7-7.9-5.5l0,0c-0.7-3.8,1.7-7.2,5.5-7.9c3.4-0.6,6.9,1.3,7.8,5.2v0.4L28.9,276.1z M40.8,273.4
			c-0.7-3-4-5.1-6.9-4.4c-3.1,0.6-5.4,3.3-5,6.5L40.8,273.4z"/>
		<polygon class="st5" points="-68,305.6 -66.2,305.3 -55.7,319.9 -50.5,302.5 -48.8,302.2 -45.5,320.7 -47,321 -49.8,305.4 
			-54.7,322.3 -55.6,322.6 -66,308.3 -63.2,323.9 -64.7,324.2 		"/>
		<path class="st5" d="M-55.5,320.9l5.3-18l1.1-0.2l3.1,17.7l-0.7,0.1l-3-17l0,0l0,0l0,0L-55,322l-0.4,0.1l-11.3-15.5l0,0l3,17
			l-0.7,0.1l-3.1-17.7l1.1-0.2L-55.5,320.9z"/>
		<path class="st5" d="M-38.2,319.7c-3.5,0-6.3-2.4-7-6c-0.4-1.9,0-3.9,1.1-5.4c1.1-1.5,2.8-2.6,4.7-3c0.4-0.1,0.9-0.1,1.3-0.1
			c3.4,0,6.2,2.3,7,5.6l0,0.5v0.4l-12.4,2.2c0.8,2.9,3.3,4.2,5.5,4.2c0,0,0,0,0,0c0.3,0,0.7,0,1-0.1c2.2-0.4,3.9-1.9,4.5-4l0.1-0.3
			l1.6-0.2l-0.1,0.6c-0.7,2.9-2.8,4.8-5.8,5.4C-37.3,319.7-37.8,319.7-38.2,319.7z M-37.9,306.8c-0.4,0-0.7,0-1.1,0.1
			c-2.9,0.6-4.8,2.9-4.7,5.6l11-1.9C-33.5,308.4-35.7,306.8-37.9,306.8z M-43.1,304.2l5.8-4.8l0.9,1.2l-5.8,4.8L-43.1,304.2z"/>
		<path class="st5" d="M-44,313.6c0.8,4.1,4.6,5.4,7.1,4.9c2.3-0.4,4.2-2,4.8-4.3l0.7-0.1c-0.7,2.9-2.9,4.6-5.5,5.1
			c-3.9,0.7-7.2-1.7-7.9-5.5l0,0c-0.7-3.8,1.7-7.2,5.5-7.9c3.4-0.6,6.9,1.3,7.8,5.2v0.4L-44,313.6z M-32.2,310.9
			c-0.7-3-4-5.1-6.9-4.4c-3.1,0.6-5.4,3.3-5,6.5L-32.2,310.9z M-37.4,300l0.4,0.5l-5.1,4.3l-0.4-0.5L-37.4,300z"/>
		<polygon class="st5" points="-30.1,316.7 -24.5,304.4 -31.5,305.7 -31.8,304.2 -22.6,302.8 -22.5,303.9 -28.1,316.1 -20.2,314.7 
			-19.9,316.1 -29.9,317.9 		"/>
		<path class="st5" d="M-23,303.3l0.1,0.6l-5.9,12.8l8.3-1.5l0.1,0.6l-9.2,1.6l-0.1-0.6l5.9-12.9l-7.4,1.3l-0.1-0.6L-23,303.3z"/>
		<path class="st5" d="M-21.1,302.5l1.5-0.2l2.3,13.5l-1.5,0.2L-21.1,302.5z M-22.1,297.4l1.5-0.2l0.6,3l-1.5,0.2L-22.1,297.4z"/>
		<path class="st5" d="M-20.5,299.9l-0.7,0.1l-0.4-2.2l0.7-0.1L-20.5,299.9z M-17.7,315.5l-0.7,0.1l-2.2-12.7l0.7-0.1L-17.7,315.5z"
			/>
		<path class="st5" d="M-10,314.8c-3.5,0-6.3-2.4-7-6c-0.4-1.9,0-3.9,1.1-5.4c1.1-1.6,2.8-2.6,4.7-3c0.4-0.1,0.9-0.1,1.3-0.1
			c3.4,0,6.2,2.3,7,5.6l0,0.5v0.4l-12.4,2.2c0.8,2.9,3.3,4.2,5.5,4.2l0,0c0.3,0,0.7,0,1-0.1c2.2-0.4,3.9-1.9,4.5-4l0.1-0.3l1.6-0.2
			l-0.1,0.6c-0.7,2.9-2.8,4.8-5.8,5.4C-9.1,314.8-9.6,314.8-10,314.8z M-9.6,301.8c-0.4,0-0.7,0-1.1,0.1c-2.9,0.6-4.8,2.9-4.7,5.6
			l11-1.9C-5.2,303.4-7.4,301.8-9.6,301.8z M-15.5,296.8l0.5-1.4L-8,298l-0.5,1.4L-15.5,296.8z"/>
		<path class="st5" d="M-15.8,308.7c0.8,4.1,4.6,5.4,7.1,4.9c2.3-0.4,4.2-2,4.8-4.3l0.7-0.1c-0.7,2.9-2.9,4.6-5.5,5.1
			c-3.9,0.7-7.2-1.7-7.9-5.5l0,0c-0.7-3.8,1.7-7.2,5.5-7.9c3.4-0.6,6.9,1.3,7.8,5.2v0.4L-15.8,308.7z M-3.9,305.9
			c-0.7-3-4-5.1-6.9-4.4c-3.1,0.6-5.4,3.3-5,6.5L-3.9,305.9z M-8.5,298.3l-0.2,0.6l-6.3-2.3l0.2-0.6L-8.5,298.3z"/>
		<path class="st5" d="M-2.4,299.2l1.5-0.2l0.2,1.3c1-1.6,2.7-2.1,3.6-2.3l0.5-0.1l0.2,0.4l0.2,1l-0.4,0.1c-0.8,0.2-1.5,0.4-2.4,1.3
			c-1.2,1.5-1.1,2.9-0.8,4.5l1.3,7.3L0,312.8L-2.4,299.2z"/>
		<path class="st5" d="M-0.8,301.8L-0.8,301.8c0.8-2.6,2.9-3.1,4-3.4l0.1,0.6c-0.8,0.2-1.6,0.4-2.6,1.4c-1.3,1.6-1.2,3.1-0.9,4.9
			l1.2,6.9l-0.7,0.1l-2.2-12.7l0.7-0.1L-0.8,301.8z"/>
		<path class="st5" d="M10.4,311.2c-3.5,0-6.3-2.4-7-6c-0.4-1.9,0-3.9,1.1-5.4c1.1-1.6,2.8-2.6,4.7-3c0.4-0.1,0.9-0.1,1.3-0.1
			c3.4,0,6.2,2.3,7,5.6l0,0.5v0.4l-12.4,2.2c0.8,2.9,3.3,4.2,5.5,4.2c0,0,0,0,0,0c0.3,0,0.7,0,1-0.1c2.2-0.4,3.9-1.9,4.5-4l0.1-0.3
			l1.6-0.2l-0.1,0.6c-0.7,2.9-2.8,4.8-5.8,5.4C11.3,311.2,10.8,311.2,10.4,311.2z M10.8,298.3c-0.4,0-0.7,0-1.1,0.1
			c-2.9,0.6-4.8,2.9-4.7,5.6l11-1.9C15.2,299.9,13,298.3,10.8,298.3z"/>
		<path class="st5" d="M4.6,305.1c0.8,4.1,4.6,5.4,7.1,4.9c2.3-0.4,4.2-2,4.8-4.3l0.7-0.1c-0.7,2.9-2.9,4.6-5.5,5.1
			c-3.9,0.7-7.2-1.7-7.9-5.5l0,0c-0.7-3.8,1.7-7.2,5.5-7.9c3.4-0.6,6.9,1.3,7.8,5.2v0.4L4.6,305.1z M16.5,302.4
			c-0.7-3-4-5.1-6.9-4.4c-3.1,0.6-5.4,3.3-5,6.5L16.5,302.4z"/>
		<path class="st5" d="M23.1,308.9c-2.2,0-3.9-1.5-4.2-3.5l-0.1-0.4l1.6-0.2l0.1,0.4c0.3,1.4,1.3,2.3,2.6,2.3c0.2,0,0.5,0,0.7-0.1
			c0.8-0.1,1.4-0.5,1.7-1c0.4-0.6,0.6-1.3,0.4-2.1c-0.3-1.5-1.2-2.1-3.2-2.2c-2.1-0.2-3.8-0.6-4.4-3c-0.2-1.1,0-2,0.5-2.8
			c0.6-0.8,1.6-1.4,2.7-1.6c0.3,0,0.5-0.1,0.8-0.1c2,0,3.3,1.2,3.6,3.1l0.1,0.4l-1.5,0.2l-0.1-0.4c-0.3-1.7-1.6-1.9-2.1-1.9
			c-0.2,0-0.4,0-0.6,0.1c-0.7,0.1-1.3,0.5-1.7,1c-0.3,0.5-0.4,1-0.3,1.6c0.2,1.1,0.9,1.6,2.8,1.8l0.2,0c1.8,0.2,3.8,0.4,4.5,3.3
			c0.3,1.1,0.1,2.2-0.5,3.1c-0.6,1-1.6,1.6-2.8,1.9C23.7,308.9,23.4,308.9,23.1,308.9z"/>
		<path class="st5" d="M20.1,305.2c0.4,2,2,3,3.8,2.6c1.9-0.3,2.8-2,2.5-3.6c-0.4-1.7-1.5-2.4-3.6-2.5c-2-0.2-3.5-0.5-4-2.7
			c-0.4-2.1,1-3.6,2.9-3.9c1.8-0.3,3.6,0.5,3.9,2.7l-0.7,0.1c-0.3-1.9-1.8-2.5-3.2-2.2c-1.7,0.3-2.6,1.7-2.3,3.1
			c0.3,1.5,1.4,1.9,3.2,2.1c1.8,0.2,3.7,0.3,4.3,3c0.5,2.1-0.9,4.1-3,4.5s-4.3-0.8-4.6-3.1L20.1,305.2z"/>
	</g>
	<g>
		<polygon class="st5" points="-169.4,277 -167.9,276.7 -161,287.4 -158.2,275 -156.6,274.8 -160.1,289.6 -161.1,289.9 		"/>
		<path class="st5" d="M-160.8,288.5l3-13.1l0.6-0.1l-3.3,14l-0.4,0.1l-7.8-12.1l0.6-0.1L-160.8,288.5z"/>
		<path class="st5" d="M-155.8,278.4l1.3-0.3l1.7,10.2l-1.3,0.3L-155.8,278.4z M-156.5,274.7l1.3-0.3l0.5,2.4l-1.3,0.3L-156.5,274.7
			z"/>
		<path class="st5" d="M-155.2,276.6l-0.5,0.1l-0.3-1.6l0.5-0.1L-155.2,276.6z M-153.2,288.1l-0.5,0.1l-1.6-9.4l0.5-0.1
			L-153.2,288.1z"/>
		<polygon class="st5" points="-153.4,274.1 -152.1,273.9 -149.6,287.8 -150.9,288.1 		"/>
		<path class="st5" d="M-150.1,287.5l-0.5,0.1l-2.3-13.1l0.5-0.1L-150.1,287.5z"/>
		<polygon class="st5" points="-150.4,273.6 -149.1,273.4 -146.6,287.3 -147.9,287.6 		"/>
		<path class="st5" d="M-147.1,287l-0.5,0.1l-2.3-13.1l0.5-0.1L-147.1,287z"/>
		<path class="st5" d="M-141.4,286.5c-2.6,0-4.8-1.8-5.3-4.4c-0.5-3,1.4-5.8,4.4-6.3c0.3,0,0.6-0.1,0.9-0.1c2.6,0,4.7,1.7,5.3,4.2
			l0,0.4v0.4l-9.2,1.7c0.6,2,2.3,2.9,3.9,2.9c0,0,0,0,0,0c0.2,0,0.5,0,0.7-0.1c1.6-0.3,2.8-1.4,3.3-2.9l0.1-0.2l1.4-0.3l-0.2,0.6
			c-0.5,2.2-2.1,3.7-4.3,4C-140.7,286.5-141,286.5-141.4,286.5z M-141.3,277c-0.2,0-0.4,0-0.6,0.1c-2,0.4-3.4,2-3.4,3.9l7.9-1.3
			C-138,278.2-139.6,277-141.3,277z"/>
		<path class="st5" d="M-145.7,282c0.6,3,3.4,4,5.2,3.6c1.7-0.3,3.1-1.5,3.6-3.2l0.5-0.1c-0.5,2.1-2.1,3.4-4,3.7
			c-2.9,0.5-5.3-1.3-5.8-4l0,0c-0.5-2.8,1.3-5.3,4.1-5.8c2.5-0.4,5.1,1,5.7,3.8v0.3L-145.7,282z M-136.9,280
			c-0.5-2.2-2.9-3.7-5.1-3.3c-2.3,0.4-4,2.4-3.7,4.8L-136.9,280z"/>
		<path class="st5" d="M-125.6,283.8c-2.6,0-4.7-1.8-5.3-4.4c-0.6-3,1.3-5.7,4.4-6.3c0.4-0.1,0.7-0.1,1-0.1c1.3,0,2.4,0.4,3.2,1
			l-0.9-5.1l1.3-0.3l2.4,13.9l-1.3,0.3l-0.2-1.4c-0.8,1.2-2.1,2.1-3.7,2.3C-125,283.8-125.3,283.8-125.6,283.8z M-125.6,274.2
			c-0.2,0-0.5,0-0.7,0.1c-1.1,0.2-2,0.8-2.6,1.6c-0.6,0.9-0.8,2-0.6,3.1c0.3,1.7,1.7,3.4,4,3.4c0,0,0,0,0,0c0.3,0,0.5,0,0.8-0.1
			c1-0.2,1.8-0.7,2.4-1.5c0.6-0.9,0.9-2.1,0.7-3.2C-121.9,275.6-123.5,274.2-125.6,274.2z"/>
		<path class="st5" d="M-119.9,282.2l-0.5,0.1l-0.4-2.3l0,0c-0.5,1.7-1.9,3-3.9,3.3c-3.1,0.5-5.3-1.5-5.8-4c-0.5-2.6,1-5.2,4.1-5.8
			c2.3-0.4,4.1,0.7,4.8,1.8l0,0l-1.1-6.1l0.5-0.1L-119.9,282.2z M-121.2,277.6c-0.4-2.6-2.7-4.1-5.2-3.7c-2.4,0.4-4.1,2.6-3.6,5.2
			c0.4,2.1,2.2,4.2,5.3,3.7C-122.2,282.4-120.8,280-121.2,277.6z"/>
		<path class="st5" d="M-114.1,281.7c-2.6,0-4.8-1.8-5.3-4.4c-0.3-1.5,0.1-2.9,0.9-4.1c0.8-1.2,2.1-1.9,3.6-2.2
			c0.3,0,0.6-0.1,0.9-0.1c2.6,0,4.7,1.7,5.3,4.2l0,0.4v0.4l-9.2,1.7c0.6,2,2.3,2.9,3.9,2.9c0,0,0,0,0,0c0.2,0,0.5,0,0.7-0.1
			c1.6-0.3,2.8-1.4,3.3-2.9l0.1-0.2l1.4-0.3l-0.2,0.6c-0.5,2.2-2.1,3.7-4.3,4C-113.4,281.7-113.7,281.7-114.1,281.7z M-114.1,272.2
			c-0.2,0-0.4,0-0.6,0.1c-2,0.4-3.4,2-3.4,3.9l7.9-1.3C-110.8,273.4-112.4,272.2-114.1,272.2z"/>
		<path class="st5" d="M-118.4,277.2c0.6,3,3.4,4,5.2,3.6c1.7-0.3,3.1-1.5,3.6-3.2l0.5-0.1c-0.5,2.1-2.1,3.4-4,3.7
			c-2.9,0.5-5.3-1.3-5.8-4l0,0c-0.5-2.8,1.3-5.3,4.1-5.8c2.5-0.4,5.1,1,5.7,3.8v0.3L-118.4,277.2z M-109.7,275.2
			c-0.5-2.2-2.9-3.7-5.1-3.3c-2.3,0.4-4,2.4-3.7,4.8L-109.7,275.2z"/>
	</g>
	<path class="st6" d="M-104.9,314.9c4.6,3.2,10.9,2.1,14.1-2.5s2.1-10.9-2.5-14.1c-4.6-3.2-10.9-2.1-14.1,2.5
		C-110.6,305.4-109.5,311.7-104.9,314.9z"/>
</g>
</svg>
