<?xml version="1.0" encoding="utf-8"?>
<!-- Generator: Adobe Illustrator 19.1.1, SVG Export Plug-In . SVG Version: 6.00 Build 0)  -->
<svg version="1.1" id="Layer_2" xmlns="http://www.w3.org/2000/svg" xmlns:xlink="http://www.w3.org/1999/xlink" x="0px" y="0px"
	 viewBox="0 0 104.5 69" style="enable-background:new 0 0 104.5 69;" xml:space="preserve">
<style type="text/css">
	.st0{fill:#BE0A26;}
	.st1{fill:#0C3183;}
	.st2{fill:#FFDD00;}
	.st3{fill:#39A9DC;}
	.st4{fill-rule:evenodd;clip-rule:evenodd;fill:#008A2E;}
	.st5{stroke:#FFFFFF;stroke-miterlimit:10;}
</style>
<g>
	<polygon class="st0" points="26.5,27 26.5,8.7 44.7,8.7 44.7,0 17.7,0 17.7,27 	"/>
	<polygon class="st1" points="59.7,8.7 78,8.7 78,27 86.7,27 86.7,0 59.7,0 	"/>
	<polygon class="st2" points="44.7,60.3 26.5,60.3 26.5,42 17.7,42 17.7,69 44.7,69 	"/>
	<polygon class="st3" points="78,42 78,60.3 59.7,60.3 59.7,69 86.7,69 86.7,42 	"/>
	<circle class="st4" cx="52.2" cy="34.5" r="14.5"/>
</g>
<g>
	<path class="st5" d="M15.7,54.6c-4.4,0-7.3-1.7-9.3-5.4l-4.8-8.9c-1.1-2-1.6-3.8-1.6-5.8c0-2.5,0.6-4.1,1.7-6.1l4.8-8.8
		c2.1-3.8,4.9-5.4,9.5-5.4h8.9c2,0,4.2,1.2,4.2,4c0,2.6-2.1,4-4.2,4h-8.7c-1.6,0-1.6,0-2.2,1.2l-4.6,8.3c-0.6,1.2-0.9,1.7-0.9,2.8
		c0,0.8,0.2,1.3,0.8,2.4l4.5,8.4c0.7,1.3,0.7,1.3,2.5,1.3h8.5c2,0,4.2,1.2,4.2,4c0,2.6-2.1,4-4.2,4H15.7z"/>
	<path class="st5" d="M62.6,54.6c-2.6,0-4.2-1.5-4.2-4V27.3l-1.9,2.5V30c0,2.7-1.7,4.5-4.2,4.5c-2.5,0-4.2-1.8-4.2-4.5v-0.2
		l-1.9-2.5v23.4c0,2.5-1.6,4-4.2,4s-4.2-1.5-4.2-4V14.4h8.9l5.6,7.3l5.6-7.3h8.9v36.3C66.8,53.1,65.2,54.6,62.6,54.6z"/>
	<path class="st5" d="M75.4,54.6v-5.1l17.4-27.2H79.6c-2.5,0-4.2-1.6-4.2-4c0-2.4,1.7-4,4.2-4h24.9v5.2L87,46.6h13.2
		c2.5,0,4.2,1.6,4.2,4c0,2.4-1.7,4-4.2,4H75.4z"/>
</g>
</svg>
